# MagicaVoxel @ Ephtracy

# group
o 

# material
mtllib Obj_Key.mtl
usemtl palette

# normals
vn -1 0 0
vn 1 0 0
vn 0 0 1
vn 0 0 -1
vn 0 -1 0
vn 0 1 0

# texcoords
vt 0.384766 0.5
vt 0.443359 0.5
vt 0.470703 0.5
vt 0.482422 0.5

# verts
v -0.7 1.5 0.0999999
v -0.7 1.5 -0.1
v -0.7 1.7 0.0999999
v -0.7 1.7 -0.1
v -0.6 1.4 0.0999999
v -0.6 1.4 -0.1
v -0.6 1.5 0.0999999
v -0.6 1.5 -0.1
v -0.6 1.7 0.0999999
v -0.6 1.7 -0.1
v -0.6 1.8 0.0999999
v -0.6 1.8 -0.1
v -0.5 1.3 0.0999999
v -0.5 1.3 -0.1
v -0.5 1.4 0.0999999
v -0.5 1.4 -0.1
v -0.5 1.8 0.0999999
v -0.5 1.8 -0.1
v -0.5 1.9 0.0999999
v -0.5 1.9 -0.1
v -0.3 0.4 0.0999999
v -0.3 0.4 -0.1
v -0.3 0.5 0.0999999
v -0.3 0.5 -0.1
v -0.3 0.6 0.0999999
v -0.3 0.6 -0.1
v -0.3 0.7 0.0999999
v -0.3 0.7 -0.1
v -0.3 0.8 0.0999999
v -0.3 0.8 -0.1
v -0.3 1.2 0.0999999
v -0.3 1.2 -0.1
v -0.3 1.3 0.0999999
v -0.3 1.3 -0.1
v -0.3 1.9 0.0999999
v -0.3 1.9 -0.1
v -0.3 2 0.0999999
v -0.3 2 -0.1
v -0.2 0.1 0.0999999
v -0.2 0.1 -0.1
v -0.2 0.2 0.0999999
v -0.2 0.2 -0.1
v -0.2 0.3 0.0999999
v -0.2 0.3 -0.1
v -0.1 0.3 0.0999999
v -0.1 0.3 -0.1
v -0.1 0.4 0.0999999
v -0.1 0.4 -0.1
v -0.1 0.5 0.0999999
v -0.1 0.5 -0.1
v -0.1 0.6 0.0999999
v -0.1 0.6 -0.1
v -0.1 0.8 0.0999999
v -0.1 0.8 -0.1
v -0.1 1 0.0999999
v -0.1 1 -0.1
v -0.1 1.1 0.0999999
v -0.1 1.1 -0.1
v -0.1 1.2 0.0999999
v -0.1 1.2 -0.1
v -0.1 2 0.0999999
v -0.1 2 -0.1
v -0.1 2.1 0.0999999
v -0.1 2.1 -0.1
v 5.96046e-08 0 0.0999999
v 5.96046e-08 0 -0.1
v 5.96046e-08 0.1 0.0999999
v 5.96046e-08 0.1 -0.1
v 0.2 0 0.0999999
v 0.2 0 -0.1
v 0.2 1 0.0999999
v 0.2 1 -0.1
v 0.2 1.1 0.0999999
v 0.2 1.1 -0.1
v 0.2 1.2 0.0999999
v 0.2 1.2 -0.1
v 0.2 2 0.0999999
v 0.2 2 -0.1
v 0.2 2.1 0.0999999
v 0.2 2.1 -0.1
v 0.4 1.2 0.0999999
v 0.4 1.2 -0.1
v 0.4 1.3 0.0999999
v 0.4 1.3 -0.1
v 0.4 1.9 0.0999999
v 0.4 1.9 -0.1
v 0.4 2 0.0999999
v 0.4 2 -0.1
v 0.6 1.3 0.0999999
v 0.6 1.3 -0.1
v 0.6 1.4 0.0999999
v 0.6 1.4 -0.1
v 0.6 1.8 0.0999999
v 0.6 1.8 -0.1
v 0.6 1.9 0.0999999
v 0.6 1.9 -0.1
v 0.7 1.4 0.0999999
v 0.7 1.4 -0.1
v 0.7 1.5 0.0999999
v 0.7 1.5 -0.1
v 0.7 1.7 0.0999999
v 0.7 1.7 -0.1
v 0.7 1.8 0.0999999
v 0.7 1.8 -0.1
v 0.8 1.5 0.0999999
v 0.8 1.5 -0.1
v 0.8 1.7 0.0999999
v 0.8 1.7 -0.1
v -0.7 1.5 0.0999999
v -0.7 1.7 0.0999999
v -0.6 1.4 0.0999999
v -0.6 1.5 0.0999999
v -0.6 1.7 0.0999999
v -0.6 1.8 0.0999999
v -0.5 1.3 0.0999999
v -0.5 1.4 0.0999999
v -0.5 1.5 0.0999999
v -0.5 1.7 0.0999999
v -0.5 1.8 0.0999999
v -0.5 1.9 0.0999999
v -0.4 1.3 0.0999999
v -0.4 1.4 0.0999999
v -0.4 1.5 0.0999999
v -0.4 1.7 0.0999999
v -0.4 1.8 0.0999999
v -0.3 0.4 0.0999999
v -0.3 0.5 0.0999999
v -0.3 0.6 0.0999999
v -0.3 0.7 0.0999999
v -0.3 0.8 0.0999999
v -0.3 1.2 0.0999999
v -0.3 1.3 0.0999999
v -0.3 1.4 0.0999999
v -0.3 1.5 0.0999999
v -0.3 1.8 0.0999999
v -0.3 1.9 0.0999999
v -0.3 2 0.0999999
v -0.2 0.1 0.0999999
v -0.2 0.2 0.0999999
v -0.2 0.3 0.0999999
v -0.2 1.4 0.0999999
v -0.2 1.5 0.0999999
v -0.2 1.6 0.0999999
v -0.2 1.8 0.0999999
v -0.2 1.9 0.0999999
v -0.1 0.3 0.0999999
v -0.1 0.4 0.0999999
v -0.1 0.5 0.0999999
v -0.1 0.6 0.0999999
v -0.1 0.7 0.0999999
v -0.1 0.8 0.0999999
v -0.1 1 0.0999999
v -0.1 1.1 0.0999999
v -0.1 1.2 0.0999999
v -0.1 1.3 0.0999999
v -0.1 1.4 0.0999999
v -0.1 1.9 0.0999999
v -0.1 2 0.0999999
v -0.1 2.1 0.0999999
v 5.96046e-08 0 0.0999999
v 5.96046e-08 0.1 0.0999999
v 5.96046e-08 0.2 0.0999999
v 0.2 0 0.0999999
v 0.2 1 0.0999999
v 0.2 1.1 0.0999999
v 0.2 1.2 0.0999999
v 0.2 1.3 0.0999999
v 0.2 1.4 0.0999999
v 0.2 1.6 0.0999999
v 0.2 1.7 0.0999999
v 0.2 1.9 0.0999999
v 0.2 2 0.0999999
v 0.2 2.1 0.0999999
v 0.3 1.4 0.0999999
v 0.3 1.5 0.0999999
v 0.3 1.7 0.0999999
v 0.3 1.8 0.0999999
v 0.3 1.9 0.0999999
v 0.4 1.2 0.0999999
v 0.4 1.3 0.0999999
v 0.4 1.4 0.0999999
v 0.4 1.5 0.0999999
v 0.4 1.8 0.0999999
v 0.4 1.9 0.0999999
v 0.4 2 0.0999999
v 0.5 1.3 0.0999999
v 0.5 1.4 0.0999999
v 0.5 1.5 0.0999999
v 0.5 1.7 0.0999999
v 0.5 1.8 0.0999999
v 0.6 1.3 0.0999999
v 0.6 1.4 0.0999999
v 0.6 1.5 0.0999999
v 0.6 1.7 0.0999999
v 0.6 1.8 0.0999999
v 0.6 1.9 0.0999999
v 0.7 1.4 0.0999999
v 0.7 1.5 0.0999999
v 0.7 1.7 0.0999999
v 0.7 1.8 0.0999999
v 0.8 1.5 0.0999999
v 0.8 1.7 0.0999999
v -0.7 1.5 -0.1
v -0.7 1.7 -0.1
v -0.6 1.4 -0.1
v -0.6 1.5 -0.1
v -0.6 1.7 -0.1
v -0.6 1.8 -0.1
v -0.5 1.3 -0.1
v -0.5 1.4 -0.1
v -0.5 1.5 -0.1
v -0.5 1.7 -0.1
v -0.5 1.8 -0.1
v -0.5 1.9 -0.1
v -0.4 1.3 -0.1
v -0.4 1.4 -0.1
v -0.4 1.5 -0.1
v -0.4 1.7 -0.1
v -0.4 1.8 -0.1
v -0.3 0.4 -0.1
v -0.3 0.5 -0.1
v -0.3 0.6 -0.1
v -0.3 0.7 -0.1
v -0.3 0.8 -0.1
v -0.3 1.2 -0.1
v -0.3 1.3 -0.1
v -0.3 1.4 -0.1
v -0.3 1.5 -0.1
v -0.3 1.8 -0.1
v -0.3 1.9 -0.1
v -0.3 2 -0.1
v -0.2 0.1 -0.1
v -0.2 0.2 -0.1
v -0.2 0.3 -0.1
v -0.2 1.4 -0.1
v -0.2 1.5 -0.1
v -0.2 1.6 -0.1
v -0.2 1.8 -0.1
v -0.2 1.9 -0.1
v -0.1 0.3 -0.1
v -0.1 0.4 -0.1
v -0.1 0.5 -0.1
v -0.1 0.6 -0.1
v -0.1 0.7 -0.1
v -0.1 0.8 -0.1
v -0.1 1 -0.1
v -0.1 1.1 -0.1
v -0.1 1.2 -0.1
v -0.1 1.3 -0.1
v -0.1 1.4 -0.1
v -0.1 1.9 -0.1
v -0.1 2 -0.1
v -0.1 2.1 -0.1
v 5.96046e-08 0 -0.1
v 5.96046e-08 0.1 -0.1
v 5.96046e-08 0.2 -0.1
v 0.2 0 -0.1
v 0.2 1 -0.1
v 0.2 1.1 -0.1
v 0.2 1.2 -0.1
v 0.2 1.3 -0.1
v 0.2 1.4 -0.1
v 0.2 1.6 -0.1
v 0.2 1.7 -0.1
v 0.2 1.9 -0.1
v 0.2 2 -0.1
v 0.2 2.1 -0.1
v 0.3 1.4 -0.1
v 0.3 1.5 -0.1
v 0.3 1.7 -0.1
v 0.3 1.8 -0.1
v 0.3 1.9 -0.1
v 0.4 1.2 -0.1
v 0.4 1.3 -0.1
v 0.4 1.4 -0.1
v 0.4 1.5 -0.1
v 0.4 1.8 -0.1
v 0.4 1.9 -0.1
v 0.4 2 -0.1
v 0.5 1.3 -0.1
v 0.5 1.4 -0.1
v 0.5 1.5 -0.1
v 0.5 1.7 -0.1
v 0.5 1.8 -0.1
v 0.6 1.3 -0.1
v 0.6 1.4 -0.1
v 0.6 1.5 -0.1
v 0.6 1.7 -0.1
v 0.6 1.8 -0.1
v 0.6 1.9 -0.1
v 0.7 1.4 -0.1
v 0.7 1.5 -0.1
v 0.7 1.7 -0.1
v 0.7 1.8 -0.1
v 0.8 1.5 -0.1
v 0.8 1.7 -0.1
v 5.96046e-08 0 0.0999999
v 0.2 0 0.0999999
v 5.96046e-08 0 -0.1
v 0.2 0 -0.1
v -0.2 0.1 0.0999999
v 5.96046e-08 0.1 0.0999999
v -0.2 0.1 -0.1
v 5.96046e-08 0.1 -0.1
v -0.3 0.4 0.0999999
v -0.1 0.4 0.0999999
v -0.3 0.4 -0.1
v -0.1 0.4 -0.1
v -0.3 0.6 0.0999999
v -0.1 0.6 0.0999999
v -0.3 0.6 -0.1
v -0.1 0.6 -0.1
v -0.3 1.2 0.0999999
v -0.1 1.2 0.0999999
v 0.2 1.2 0.0999999
v 0.4 1.2 0.0999999
v -0.3 1.2 -0.1
v -0.1 1.2 -0.1
v 0.2 1.2 -0.1
v 0.4 1.2 -0.1
v -0.5 1.3 0.0999999
v -0.4 1.3 0.0999999
v -0.3 1.3 0.0999999
v 0.4 1.3 0.0999999
v 0.5 1.3 0.0999999
v 0.6 1.3 0.0999999
v -0.5 1.3 -0.1
v -0.4 1.3 -0.1
v -0.3 1.3 -0.1
v 0.4 1.3 -0.1
v 0.5 1.3 -0.1
v 0.6 1.3 -0.1
v -0.6 1.4 0.0999999
v -0.5 1.4 0.0999999
v 0.6 1.4 0.0999999
v 0.7 1.4 0.0999999
v -0.6 1.4 -0.1
v -0.5 1.4 -0.1
v 0.6 1.4 -0.1
v 0.7 1.4 -0.1
v -0.7 1.5 0.0999999
v -0.6 1.5 0.0999999
v 0.7 1.5 0.0999999
v 0.8 1.5 0.0999999
v -0.7 1.5 -0.1
v -0.6 1.5 -0.1
v 0.7 1.5 -0.1
v 0.8 1.5 -0.1
v -0.2 0.3 0.0999999
v -0.1 0.3 0.0999999
v -0.2 0.3 -0.1
v -0.1 0.3 -0.1
v -0.3 0.5 0.0999999
v -0.1 0.5 0.0999999
v -0.3 0.5 -0.1
v -0.1 0.5 -0.1
v -0.3 0.8 0.0999999
v -0.1 0.8 0.0999999
v -0.3 0.8 -0.1
v -0.1 0.8 -0.1
v -0.7 1.7 0.0999999
v -0.6 1.7 0.0999999
v 0.7 1.7 0.0999999
v 0.8 1.7 0.0999999
v -0.7 1.7 -0.1
v -0.6 1.7 -0.1
v 0.7 1.7 -0.1
v 0.8 1.7 -0.1
v -0.6 1.8 0.0999999
v -0.5 1.8 0.0999999
v 0.6 1.8 0.0999999
v 0.7 1.8 0.0999999
v -0.6 1.8 -0.1
v -0.5 1.8 -0.1
v 0.6 1.8 -0.1
v 0.7 1.8 -0.1
v -0.5 1.9 0.0999999
v -0.3 1.9 0.0999999
v 0.4 1.9 0.0999999
v 0.6 1.9 0.0999999
v -0.5 1.9 -0.1
v -0.3 1.9 -0.1
v 0.4 1.9 -0.1
v 0.6 1.9 -0.1
v -0.3 2 0.0999999
v -0.1 2 0.0999999
v 0.2 2 0.0999999
v 0.4 2 0.0999999
v -0.3 2 -0.1
v -0.1 2 -0.1
v 0.2 2 -0.1
v 0.4 2 -0.1
v -0.1 2.1 0.0999999
v 0.2 2.1 0.0999999
v -0.1 2.1 -0.1
v 0.2 2.1 -0.1

# faces
f 3/4/1 2/4/1 1/4/1
f 4/4/1 2/4/1 3/4/1
f 7/4/1 6/4/1 5/4/1
f 8/4/1 6/4/1 7/4/1
f 11/4/1 10/4/1 9/4/1
f 12/4/1 10/4/1 11/4/1
f 15/4/1 14/4/1 13/4/1
f 16/4/1 14/4/1 15/4/1
f 19/4/1 18/4/1 17/4/1
f 20/4/1 18/4/1 19/4/1
f 23/4/1 22/4/1 21/4/1
f 24/4/1 22/4/1 23/4/1
f 27/1/1 26/1/1 25/1/1
f 28/1/1 26/1/1 27/1/1
f 29/4/1 28/4/1 27/4/1
f 30/4/1 28/4/1 29/4/1
f 33/4/1 32/4/1 31/4/1
f 34/4/1 32/4/1 33/4/1
f 37/4/1 36/4/1 35/4/1
f 38/4/1 36/4/1 37/4/1
f 41/1/1 40/1/1 39/1/1
f 42/1/1 40/1/1 41/1/1
f 43/4/1 42/4/1 41/4/1
f 44/4/1 42/4/1 43/4/1
f 47/4/1 46/4/1 45/4/1
f 48/4/1 46/4/1 47/4/1
f 51/4/1 50/4/1 49/4/1
f 52/4/1 50/4/1 51/4/1
f 55/4/1 54/4/1 53/4/1
f 56/4/1 54/4/1 55/4/1
f 57/1/1 56/1/1 55/1/1
f 58/1/1 56/1/1 57/1/1
f 59/4/1 58/4/1 57/4/1
f 60/4/1 58/4/1 59/4/1
f 63/4/1 62/4/1 61/4/1
f 64/4/1 62/4/1 63/4/1
f 67/4/1 66/4/1 65/4/1
f 68/4/1 66/4/1 67/4/1
f 69/4/2 70/4/2 71/4/2
f 71/4/2 70/4/2 72/4/2
f 71/1/2 72/1/2 73/1/2
f 73/1/2 72/1/2 74/1/2
f 73/4/2 74/4/2 75/4/2
f 75/4/2 74/4/2 76/4/2
f 77/4/2 78/4/2 79/4/2
f 79/4/2 78/4/2 80/4/2
f 81/4/2 82/4/2 83/4/2
f 83/4/2 82/4/2 84/4/2
f 85/4/2 86/4/2 87/4/2
f 87/4/2 86/4/2 88/4/2
f 89/4/2 90/4/2 91/4/2
f 91/4/2 90/4/2 92/4/2
f 93/4/2 94/4/2 95/4/2
f 95/4/2 94/4/2 96/4/2
f 97/4/2 98/4/2 99/4/2
f 99/4/2 98/4/2 100/4/2
f 101/4/2 102/4/2 103/4/2
f 103/4/2 102/4/2 104/4/2
f 105/4/2 106/4/2 107/4/2
f 107/4/2 106/4/2 108/4/2
f 112/4/3 110/4/3 109/4/3
f 113/4/3 110/4/3 112/4/3
f 116/4/3 112/4/3 111/4/3
f 117/1/3 113/1/3 112/1/3
f 117/4/3 112/4/3 116/4/3
f 118/4/3 114/4/3 113/4/3
f 118/1/3 113/1/3 117/1/3
f 119/4/3 114/4/3 118/4/3
f 121/4/3 116/4/3 115/4/3
f 122/1/3 117/1/3 116/1/3
f 122/4/3 116/4/3 121/4/3
f 123/4/3 118/4/3 117/4/3
f 123/1/3 117/1/3 122/1/3
f 124/1/3 119/1/3 118/1/3
f 124/4/3 118/4/3 123/4/3
f 125/4/3 120/4/3 119/4/3
f 125/1/3 119/1/3 124/1/3
f 132/1/3 122/1/3 121/1/3
f 133/4/3 124/4/3 123/4/3
f 133/4/3 123/4/3 122/4/3
f 133/1/3 122/1/3 132/1/3
f 133/4/3 125/4/3 124/4/3
f 134/4/3 125/4/3 133/4/3
f 135/4/3 120/4/3 125/4/3
f 135/4/3 125/4/3 134/4/3
f 136/4/3 120/4/3 135/4/3
f 141/4/3 132/4/3 131/4/3
f 141/4/3 134/4/3 133/4/3
f 141/4/3 133/4/3 132/4/3
f 142/2/3 135/2/3 134/2/3
f 142/4/3 134/4/3 141/4/3
f 143/2/3 135/2/3 142/2/3
f 144/4/3 137/4/3 136/4/3
f 144/2/3 135/2/3 143/2/3
f 144/4/3 136/4/3 135/4/3
f 145/4/3 137/4/3 144/4/3
f 146/4/3 140/4/3 139/4/3
f 147/4/3 127/4/3 126/4/3
f 148/4/3 127/4/3 147/4/3
f 149/1/3 129/1/3 128/1/3
f 150/4/3 130/4/3 129/4/3
f 150/1/3 129/1/3 149/1/3
f 151/4/3 130/4/3 150/4/3
f 154/4/3 141/4/3 131/4/3
f 155/4/3 141/4/3 154/4/3
f 156/3/3 143/3/3 142/3/3
f 156/4/3 141/4/3 155/4/3
f 156/3/3 142/3/3 141/3/3
f 157/4/3 137/4/3 145/4/3
f 157/2/3 144/2/3 143/2/3
f 157/2/3 145/2/3 144/2/3
f 158/4/3 137/4/3 157/4/3
f 161/1/3 139/1/3 138/1/3
f 162/4/3 149/4/3 148/4/3
f 162/4/3 148/4/3 147/4/3
f 162/1/3 139/1/3 161/1/3
f 162/4/3 146/4/3 139/4/3
f 162/4/3 147/4/3 146/4/3
f 162/4/3 150/4/3 149/4/3
f 162/4/3 152/4/3 151/4/3
f 162/4/3 151/4/3 150/4/3
f 163/4/3 161/4/3 160/4/3
f 163/4/3 162/4/3 161/4/3
f 164/4/3 152/4/3 162/4/3
f 164/4/3 162/4/3 163/4/3
f 164/1/3 153/1/3 152/1/3
f 165/4/3 155/4/3 154/4/3
f 165/1/3 153/1/3 164/1/3
f 165/4/3 154/4/3 153/4/3
f 166/4/3 155/4/3 165/4/3
f 167/3/3 156/3/3 155/3/3
f 167/4/3 155/4/3 166/4/3
f 168/3/3 143/3/3 156/3/3
f 168/3/3 156/3/3 167/3/3
f 169/2/3 158/2/3 157/2/3
f 169/3/3 143/3/3 168/3/3
f 169/2/3 157/2/3 143/2/3
f 170/2/3 158/2/3 169/2/3
f 171/2/3 158/2/3 170/2/3
f 172/4/3 159/4/3 158/4/3
f 172/2/3 158/2/3 171/2/3
f 173/4/3 159/4/3 172/4/3
f 174/4/3 167/4/3 166/4/3
f 174/4/3 168/4/3 167/4/3
f 174/3/3 170/3/3 169/3/3
f 174/3/3 169/3/3 168/3/3
f 175/3/3 170/3/3 174/3/3
f 176/2/3 171/2/3 170/2/3
f 176/3/3 170/3/3 175/3/3
f 177/2/3 171/2/3 176/2/3
f 178/4/3 172/4/3 171/4/3
f 178/2/3 171/2/3 177/2/3
f 179/4/3 175/4/3 174/4/3
f 179/4/3 174/4/3 166/4/3
f 180/4/3 175/4/3 179/4/3
f 181/4/3 175/4/3 180/4/3
f 182/3/3 177/3/3 176/3/3
f 182/4/3 175/4/3 181/4/3
f 182/3/3 176/3/3 175/3/3
f 183/4/3 178/4/3 177/4/3
f 183/3/3 177/3/3 182/3/3
f 184/4/3 172/4/3 178/4/3
f 184/4/3 178/4/3 183/4/3
f 185/4/3 172/4/3 184/4/3
f 186/1/3 181/1/3 180/1/3
f 187/4/3 183/4/3 182/4/3
f 187/1/3 181/1/3 186/1/3
f 187/4/3 182/4/3 181/4/3
f 187/4/3 184/4/3 183/4/3
f 188/4/3 184/4/3 187/4/3
f 189/4/3 184/4/3 188/4/3
f 190/4/3 184/4/3 189/4/3
f 191/4/3 187/4/3 186/4/3
f 192/1/3 188/1/3 187/1/3
f 192/4/3 187/4/3 191/4/3
f 193/4/3 189/4/3 188/4/3
f 193/1/3 188/1/3 192/1/3
f 194/1/3 190/1/3 189/1/3
f 194/4/3 189/4/3 193/4/3
f 195/4/3 184/4/3 190/4/3
f 195/1/3 190/1/3 194/1/3
f 196/4/3 184/4/3 195/4/3
f 197/4/3 193/4/3 192/4/3
f 198/1/3 194/1/3 193/1/3
f 198/4/3 193/4/3 197/4/3
f 199/4/3 195/4/3 194/4/3
f 199/1/3 194/1/3 198/1/3
f 200/4/3 195/4/3 199/4/3
f 201/4/3 199/4/3 198/4/3
f 202/4/3 199/4/3 201/4/3
f 203/4/4 204/4/4 206/4/4
f 206/4/4 204/4/4 207/4/4
f 205/4/4 206/4/4 210/4/4
f 206/1/4 207/1/4 211/1/4
f 210/4/4 206/4/4 211/4/4
f 207/4/4 208/4/4 212/4/4
f 211/1/4 207/1/4 212/1/4
f 212/4/4 208/4/4 213/4/4
f 209/4/4 210/4/4 215/4/4
f 210/1/4 211/1/4 216/1/4
f 215/4/4 210/4/4 216/4/4
f 211/4/4 212/4/4 217/4/4
f 216/1/4 211/1/4 217/1/4
f 212/1/4 213/1/4 218/1/4
f 217/4/4 212/4/4 218/4/4
f 213/4/4 214/4/4 219/4/4
f 218/1/4 213/1/4 219/1/4
f 215/1/4 216/1/4 226/1/4
f 217/4/4 218/4/4 227/4/4
f 216/4/4 217/4/4 227/4/4
f 226/1/4 216/1/4 227/1/4
f 218/4/4 219/4/4 227/4/4
f 227/4/4 219/4/4 228/4/4
f 219/4/4 214/4/4 229/4/4
f 228/4/4 219/4/4 229/4/4
f 229/4/4 214/4/4 230/4/4
f 225/4/4 226/4/4 235/4/4
f 227/4/4 228/4/4 235/4/4
f 226/4/4 227/4/4 235/4/4
f 228/2/4 229/2/4 236/2/4
f 235/4/4 228/4/4 236/4/4
f 236/2/4 229/2/4 237/2/4
f 230/4/4 231/4/4 238/4/4
f 237/2/4 229/2/4 238/2/4
f 229/4/4 230/4/4 238/4/4
f 238/4/4 231/4/4 239/4/4
f 233/4/4 234/4/4 240/4/4
f 220/4/4 221/4/4 241/4/4
f 241/4/4 221/4/4 242/4/4
f 222/1/4 223/1/4 243/1/4
f 223/4/4 224/4/4 244/4/4
f 243/1/4 223/1/4 244/1/4
f 244/4/4 224/4/4 245/4/4
f 225/4/4 235/4/4 248/4/4
f 248/4/4 235/4/4 249/4/4
f 236/3/4 237/3/4 250/3/4
f 249/4/4 235/4/4 250/4/4
f 235/3/4 236/3/4 250/3/4
f 239/4/4 231/4/4 251/4/4
f 237/2/4 238/2/4 251/2/4
f 238/2/4 239/2/4 251/2/4
f 251/4/4 231/4/4 252/4/4
f 232/1/4 233/1/4 255/1/4
f 242/4/4 243/4/4 256/4/4
f 241/4/4 242/4/4 256/4/4
f 255/1/4 233/1/4 256/1/4
f 233/4/4 240/4/4 256/4/4
f 240/4/4 241/4/4 256/4/4
f 243/4/4 244/4/4 256/4/4
f 245/4/4 246/4/4 256/4/4
f 244/4/4 245/4/4 256/4/4
f 254/4/4 255/4/4 257/4/4
f 255/4/4 256/4/4 257/4/4
f 256/4/4 246/4/4 258/4/4
f 257/4/4 256/4/4 258/4/4
f 246/1/4 247/1/4 258/1/4
f 248/4/4 249/4/4 259/4/4
f 258/1/4 247/1/4 259/1/4
f 247/4/4 248/4/4 259/4/4
f 259/4/4 249/4/4 260/4/4
f 249/3/4 250/3/4 261/3/4
f 260/4/4 249/4/4 261/4/4
f 250/3/4 237/3/4 262/3/4
f 261/3/4 250/3/4 262/3/4
f 251/2/4 252/2/4 263/2/4
f 262/3/4 237/3/4 263/3/4
f 237/2/4 251/2/4 263/2/4
f 263/2/4 252/2/4 264/2/4
f 264/2/4 252/2/4 265/2/4
f 252/4/4 253/4/4 266/4/4
f 265/2/4 252/2/4 266/2/4
f 266/4/4 253/4/4 267/4/4
f 260/4/4 261/4/4 268/4/4
f 261/4/4 262/4/4 268/4/4
f 263/3/4 264/3/4 268/3/4
f 262/3/4 263/3/4 268/3/4
f 268/3/4 264/3/4 269/3/4
f 264/2/4 265/2/4 270/2/4
f 269/3/4 264/3/4 270/3/4
f 270/2/4 265/2/4 271/2/4
f 265/4/4 266/4/4 272/4/4
f 271/2/4 265/2/4 272/2/4
f 268/4/4 269/4/4 273/4/4
f 260/4/4 268/4/4 273/4/4
f 273/4/4 269/4/4 274/4/4
f 274/4/4 269/4/4 275/4/4
f 270/3/4 271/3/4 276/3/4
f 275/4/4 269/4/4 276/4/4
f 269/3/4 270/3/4 276/3/4
f 271/4/4 272/4/4 277/4/4
f 276/3/4 271/3/4 277/3/4
f 272/4/4 266/4/4 278/4/4
f 277/4/4 272/4/4 278/4/4
f 278/4/4 266/4/4 279/4/4
f 274/1/4 275/1/4 280/1/4
f 276/4/4 277/4/4 281/4/4
f 280/1/4 275/1/4 281/1/4
f 275/4/4 276/4/4 281/4/4
f 277/4/4 278/4/4 281/4/4
f 281/4/4 278/4/4 282/4/4
f 282/4/4 278/4/4 283/4/4
f 283/4/4 278/4/4 284/4/4
f 280/4/4 281/4/4 285/4/4
f 281/1/4 282/1/4 286/1/4
f 285/4/4 281/4/4 286/4/4
f 282/4/4 283/4/4 287/4/4
f 286/1/4 282/1/4 287/1/4
f 283/1/4 284/1/4 288/1/4
f 287/4/4 283/4/4 288/4/4
f 284/4/4 278/4/4 289/4/4
f 288/1/4 284/1/4 289/1/4
f 289/4/4 278/4/4 290/4/4
f 286/4/4 287/4/4 291/4/4
f 287/1/4 288/1/4 292/1/4
f 291/4/4 287/4/4 292/4/4
f 288/4/4 289/4/4 293/4/4
f 292/1/4 288/1/4 293/1/4
f 293/4/4 289/4/4 294/4/4
f 292/4/4 293/4/4 295/4/4
f 295/4/4 293/4/4 296/4/4
f 299/4/5 298/4/5 297/4/5
f 300/4/5 298/4/5 299/4/5
f 303/1/5 302/1/5 301/1/5
f 304/1/5 302/1/5 303/1/5
f 307/4/5 306/4/5 305/4/5
f 308/4/5 306/4/5 307/4/5
f 311/1/5 310/1/5 309/1/5
f 312/1/5 310/1/5 311/1/5
f 317/4/5 314/4/5 313/4/5
f 318/4/5 314/4/5 317/4/5
f 319/4/5 316/4/5 315/4/5
f 320/4/5 316/4/5 319/4/5
f 327/4/5 322/4/5 321/4/5
f 328/1/5 323/1/5 322/1/5
f 328/4/5 322/4/5 327/4/5
f 329/1/5 323/1/5 328/1/5
f 330/1/5 325/1/5 324/1/5
f 331/4/5 326/4/5 325/4/5
f 331/1/5 325/1/5 330/1/5
f 332/4/5 326/4/5 331/4/5
f 337/4/5 334/4/5 333/4/5
f 338/4/5 334/4/5 337/4/5
f 339/4/5 336/4/5 335/4/5
f 340/4/5 336/4/5 339/4/5
f 345/4/5 342/4/5 341/4/5
f 346/4/5 342/4/5 345/4/5
f 347/4/5 344/4/5 343/4/5
f 348/4/5 344/4/5 347/4/5
f 349/4/6 350/4/6 351/4/6
f 351/4/6 350/4/6 352/4/6
f 353/4/6 354/4/6 355/4/6
f 355/4/6 354/4/6 356/4/6
f 357/4/6 358/4/6 359/4/6
f 359/4/6 358/4/6 360/4/6
f 361/4/6 362/4/6 365/4/6
f 365/4/6 362/4/6 366/4/6
f 363/4/6 364/4/6 367/4/6
f 367/4/6 364/4/6 368/4/6
f 369/4/6 370/4/6 373/4/6
f 373/4/6 370/4/6 374/4/6
f 371/4/6 372/4/6 375/4/6
f 375/4/6 372/4/6 376/4/6
f 377/4/6 378/4/6 381/4/6
f 381/4/6 378/4/6 382/4/6
f 379/4/6 380/4/6 383/4/6
f 383/4/6 380/4/6 384/4/6
f 385/4/6 386/4/6 389/4/6
f 389/4/6 386/4/6 390/4/6
f 387/4/6 388/4/6 391/4/6
f 391/4/6 388/4/6 392/4/6
f 393/4/6 394/4/6 395/4/6
f 395/4/6 394/4/6 396/4/6
