# MagicaVoxel @ Ephtracy

# group
o 

# material
mtllib Obj_Rousoku.mtl
usemtl palette

# normals
vn -1 0 0
vn 1 0 0
vn 0 0 1
vn 0 0 -1
vn 0 -1 0
vn 0 1 0

# texcoords
vt 0.533203 0.5
vt 0.552734 0.5

# verts
v -0.0999999 0 0.0999999
v -0.0999999 0 -0.1
v -0.0999999 0.9 0.0999999
v -0.0999999 0.9 -0.1
v -0.0999999 1.1 0.0999999
v -0.0999999 1.1 -7.45058e-08
v -0.0999999 1.2 0.0999999
v -0.0999999 1.2 -7.45058e-08
v -0.0999999 1.2 -0.1
v -0.0999999 1.4 0.0999999
v -0.0999999 1.4 -7.45058e-08
v 7.45058e-08 1.3 -7.45058e-08
v 7.45058e-08 1.3 -0.1
v 7.45058e-08 1.4 -7.45058e-08
v 7.45058e-08 1.5 -7.45058e-08
v 7.45058e-08 1.5 -0.1
v 7.45058e-08 1.2 0.0999999
v 7.45058e-08 1.2 -7.45058e-08
v 7.45058e-08 1.3 -7.45058e-08
v 7.45058e-08 1.4 0.0999999
v 7.45058e-08 1.4 -7.45058e-08
v 0.1 0 0.0999999
v 0.1 0 -0.1
v 0.1 0.9 0.0999999
v 0.1 0.9 -0.1
v 0.1 1.1 0.0999999
v 0.1 1.1 -7.45058e-08
v 0.1 1.2 -7.45058e-08
v 0.1 1.2 -0.1
v 0.1 1.3 -7.45058e-08
v 0.1 1.3 -0.1
v 0.1 1.5 -7.45058e-08
v 0.1 1.5 -0.1
v -0.0999999 0 0.0999999
v -0.0999999 0.9 0.0999999
v -0.0999999 1.1 0.0999999
v -0.0999999 1.2 0.0999999
v -0.0999999 1.4 0.0999999
v 7.45058e-08 1.2 0.0999999
v 7.45058e-08 1.4 0.0999999
v 0.1 0 0.0999999
v 0.1 0.9 0.0999999
v 0.1 1.1 0.0999999
v -0.0999999 1.1 -7.45058e-08
v -0.0999999 1.2 -7.45058e-08
v 7.45058e-08 1.2 -7.45058e-08
v 7.45058e-08 1.3 -7.45058e-08
v 7.45058e-08 1.4 -7.45058e-08
v 7.45058e-08 1.5 -7.45058e-08
v 0.1 1.1 -7.45058e-08
v 0.1 1.2 -7.45058e-08
v 0.1 1.3 -7.45058e-08
v 0.1 1.5 -7.45058e-08
v -0.0999999 1.2 -7.45058e-08
v -0.0999999 1.4 -7.45058e-08
v 7.45058e-08 1.2 -7.45058e-08
v 7.45058e-08 1.3 -7.45058e-08
v 7.45058e-08 1.4 -7.45058e-08
v -0.0999999 0 -0.1
v -0.0999999 0.9 -0.1
v -0.0999999 1.2 -0.1
v 7.45058e-08 1.3 -0.1
v 7.45058e-08 1.5 -0.1
v 0.1 0 -0.1
v 0.1 0.9 -0.1
v 0.1 1.2 -0.1
v 0.1 1.3 -0.1
v 0.1 1.5 -0.1
v -0.0999999 0 0.0999999
v 0.1 0 0.0999999
v -0.0999999 0 -0.1
v 0.1 0 -0.1
v -0.0999999 1.2 0.0999999
v 7.45058e-08 1.2 0.0999999
v -0.0999999 1.2 -7.45058e-08
v 7.45058e-08 1.2 -7.45058e-08
v 7.45058e-08 1.3 -7.45058e-08
v 0.1 1.3 -7.45058e-08
v 7.45058e-08 1.3 -0.1
v 0.1 1.3 -0.1
v -0.0999999 1.1 0.0999999
v 0.1 1.1 0.0999999
v -0.0999999 1.1 -7.45058e-08
v 0.1 1.1 -7.45058e-08
v -0.0999999 1.2 -7.45058e-08
v 7.45058e-08 1.2 -7.45058e-08
v 0.1 1.2 -7.45058e-08
v -0.0999999 1.2 -0.1
v 0.1 1.2 -0.1
v -0.0999999 1.4 0.0999999
v 7.45058e-08 1.4 0.0999999
v -0.0999999 1.4 -7.45058e-08
v 7.45058e-08 1.4 -7.45058e-08
v 7.45058e-08 1.5 -7.45058e-08
v 0.1 1.5 -7.45058e-08
v 7.45058e-08 1.5 -0.1
v 0.1 1.5 -0.1

# faces
f 3/1/1 2/1/1 1/1/1
f 4/1/1 2/1/1 3/1/1
f 5/2/1 4/2/1 3/2/1
f 6/2/1 4/2/1 5/2/1
f 8/2/1 4/2/1 6/2/1
f 9/2/1 4/2/1 8/2/1
f 10/2/1 8/2/1 7/2/1
f 11/2/1 8/2/1 10/2/1
f 14/2/1 13/2/1 12/2/1
f 15/2/1 13/2/1 14/2/1
f 16/2/1 13/2/1 15/2/1
f 17/2/2 18/2/2 19/2/2
f 17/2/2 19/2/2 20/2/2
f 20/2/2 19/2/2 21/2/2
f 22/1/2 23/1/2 24/1/2
f 24/1/2 23/1/2 25/1/2
f 24/2/2 25/2/2 26/2/2
f 26/2/2 25/2/2 27/2/2
f 27/2/2 25/2/2 28/2/2
f 28/2/2 25/2/2 29/2/2
f 30/2/2 31/2/2 32/2/2
f 32/2/2 31/2/2 33/2/2
f 39/2/3 38/2/3 37/2/3
f 40/2/3 38/2/3 39/2/3
f 41/1/3 35/1/3 34/1/3
f 42/2/3 36/2/3 35/2/3
f 42/1/3 35/1/3 41/1/3
f 43/2/3 36/2/3 42/2/3
f 46/2/3 45/2/3 44/2/3
f 50/2/3 46/2/3 44/2/3
f 51/2/3 46/2/3 50/2/3
f 52/2/3 49/2/3 48/2/3
f 52/2/3 48/2/3 47/2/3
f 53/2/3 49/2/3 52/2/3
f 54/2/4 55/2/4 56/2/4
f 56/2/4 55/2/4 57/2/4
f 57/2/4 55/2/4 58/2/4
f 59/1/4 60/1/4 64/1/4
f 60/2/4 61/2/4 65/2/4
f 64/1/4 60/1/4 65/1/4
f 65/2/4 61/2/4 66/2/4
f 62/2/4 63/2/4 67/2/4
f 67/2/4 63/2/4 68/2/4
f 71/1/5 70/1/5 69/1/5
f 72/1/5 70/1/5 71/1/5
f 75/2/5 74/2/5 73/2/5
f 76/2/5 74/2/5 75/2/5
f 79/2/5 78/2/5 77/2/5
f 80/2/5 78/2/5 79/2/5
f 81/2/6 82/2/6 83/2/6
f 83/2/6 82/2/6 84/2/6
f 85/2/6 86/2/6 88/2/6
f 86/2/6 87/2/6 88/2/6
f 88/2/6 87/2/6 89/2/6
f 90/2/6 91/2/6 92/2/6
f 92/2/6 91/2/6 93/2/6
f 94/2/6 95/2/6 96/2/6
f 96/2/6 95/2/6 97/2/6
